<svg xmlns="http://www.w3.org/2000/svg" width="312.237" height="111" viewBox="0 0 312.237 111">
  <g id="logo" transform="translate(-484 -105)">
    <g id="logo-2" data-name="logo" transform="translate(483.763 104.775)">
      <path id="Subtraction_1" data-name="Subtraction 1" d="M55,110a55.406,55.406,0,0,1-11.084-1.117,54.7,54.7,0,0,1-19.667-8.276,55.16,55.16,0,0,1-19.927-24.2,54.724,54.724,0,0,1-3.2-10.324,55.537,55.537,0,0,1,0-22.169A54.7,54.7,0,0,1,9.393,24.249a55.16,55.16,0,0,1,24.2-19.927,54.724,54.724,0,0,1,10.324-3.2,55.537,55.537,0,0,1,22.169,0A54.7,54.7,0,0,1,85.751,9.393a55.16,55.16,0,0,1,19.927,24.2,54.724,54.724,0,0,1,3.2,10.324,55.537,55.537,0,0,1,0,22.169,54.7,54.7,0,0,1-8.276,19.667,55.16,55.16,0,0,1-24.2,19.927,54.724,54.724,0,0,1-10.324,3.2A55.406,55.406,0,0,1,55,110ZM55,4.195A51.181,51.181,0,0,0,44.761,5.227a50.526,50.526,0,0,0-18.167,7.645A50.953,50.953,0,0,0,8.187,35.224a50.55,50.55,0,0,0-2.96,9.537,51.3,51.3,0,0,0,0,20.478,50.527,50.527,0,0,0,7.645,18.167,50.953,50.953,0,0,0,22.353,18.407,50.549,50.549,0,0,0,9.537,2.96,51.3,51.3,0,0,0,20.478,0,50.527,50.527,0,0,0,18.167-7.645,50.953,50.953,0,0,0,18.407-22.353,50.548,50.548,0,0,0,2.96-9.537,51.3,51.3,0,0,0,0-20.478,50.527,50.527,0,0,0-7.645-18.167A50.953,50.953,0,0,0,74.776,8.187a50.549,50.549,0,0,0-9.537-2.96A51.181,51.181,0,0,0,55,4.195Z" transform="translate(0.237 0.225)"/>
      <path id="Path_1" data-name="Path 1" d="M100.05,152.992l22.164-50.472h5.147l25.158,50.472h-7.826l-19.485-41.071-17.227,41.071Z" transform="translate(-70.513 -71.81)"/>
    </g>
    <rect id="Rectangle_1" data-name="Rectangle 1" width="111" height="111" transform="translate(484 105)" fill="none"/>
    <path id="Path_3" data-name="Path 3" d="M22.344-65.629A5.535,5.535,0,0,1,20.3-61.013,9.276,9.276,0,0,1,14.437-59.4H12.112v7.772h-2.3V-71.387h5.123Q22.344-71.387,22.344-65.629ZM12.112-61.371H14.18a7.685,7.685,0,0,0,4.42-.987,3.636,3.636,0,0,0,1.365-3.163,3.409,3.409,0,0,0-1.284-2.92,6.708,6.708,0,0,0-4-.96H12.112Zm26.076,9.745H27.172V-71.387H38.188v2.041H29.47v6.366h8.191v2.027H29.47v7.272h8.718Zm11.154,0h-2.3v-17.72H40.786v-2.041H55.6v2.041H49.342Zm20.94,0H59.266V-71.387H70.282v2.041H61.564v6.366h8.191v2.027H61.564v7.272h8.718Zm7.369-8.218v8.218h-2.3V-71.387h5.42q3.636,0,5.373,1.392a5.048,5.048,0,0,1,1.737,4.19q0,3.92-3.974,5.3l5.366,8.88H86.559l-4.785-8.218Zm0-1.973H80.8a5.439,5.439,0,0,0,3.568-.966,3.6,3.6,0,0,0,1.135-2.9,3.3,3.3,0,0,0-1.156-2.825,6.261,6.261,0,0,0-3.71-.865H77.651Z" transform="translate(602.818 222.807)"/>
    <g id="Group_1" data-name="Group 1" transform="translate(700.314 151.386)">
      <path id="Path_4" data-name="Path 4" d="M9.814-52.438V-72.2h2.3v19.761Zm19.426,0H18.224V-72.2H29.24v2.041H20.522v6.366h8.191v2.027H20.522v7.272H29.24Zm5.071,0V-72.2h2.3v17.68h8.718v2.082Zm15.06,0V-72.2h2.3v17.68h8.718v2.082ZM81.03-62.345a10.879,10.879,0,0,1-2.4,7.461,8.435,8.435,0,0,1-6.67,2.717,8.541,8.541,0,0,1-6.738-2.67q-2.372-2.67-2.372-7.535,0-4.825,2.379-7.481a8.6,8.6,0,0,1,6.758-2.656,8.418,8.418,0,0,1,6.65,2.7A10.868,10.868,0,0,1,81.03-62.345Zm-15.747,0q0,4.014,1.71,6.089a6.067,6.067,0,0,0,4.967,2.075,6.008,6.008,0,0,0,4.961-2.068q1.676-2.068,1.676-6.1,0-3.987-1.669-6.049a5.982,5.982,0,0,0-4.94-2.061,6.1,6.1,0,0,0-4.994,2.075A9.283,9.283,0,0,0,65.284-62.345Z" transform="translate(14.893 72.51)"/>
      <path id="Path_1-2" data-name="Path 1" d="M100.05,122.076l8.588-19.556h1.994l9.748,19.556h-3.032l-7.55-15.914-6.675,15.914Z" transform="translate(-100.05 -102.24)"/>
    </g>
  </g>
</svg>
